#N canvas 0 0 460 320 12;
#X obj 40 70 adc~ 1;
#X obj 160 70 adc~ 2;
#X obj 40 140 lop~;
#X obj 40 210 dac~ 1;
#X connect 0 0 2 0;
#X connect 1 0 2 1;
#X connect 2 0 3 0;
#X text 40 20 @name Lowpass;
#X text 40 260 @desc One-pole lowpass filter.;
#X text 40 280 @in audio cutoff;
#X text 240 280 @out out;
#X text 40 300 @param cutoff 1000 20 12000;
