#N canvas 0 0 460 280 12;
#X obj 40 70 noise~;
#X obj 40 120 *~ 0.2;
#X obj 40 180 dac~ 1;
#X connect 0 0 1 0;
#X connect 1 0 2 0;
#X text 40 20 @name Noise;
#X text 40 220 @desc White-noise generator.;
#X text 240 240 @out out;
