#N canvas 0 0 460 360 12;
#X obj 40 70 adc~ 1;
#X obj 160 70 adc~ 2;
#X obj 160 110 osc~;
#X obj 160 150 *~ 0.5;
#X obj 160 190 +~ 0.5;
#X obj 40 240 *~;
#X obj 40 300 dac~ 1;
#X connect 1 0 2 0;
#X connect 2 0 3 0;
#X connect 3 0 4 0;
#X connect 0 0 5 0;
#X connect 4 0 5 1;
#X connect 5 0 6 0;
#X text 40 20 @name Tremolo;
#X text 40 330 @desc Sine-LFO amplitude modulation.;
#X text 40 350 @in audio rate;
#X text 240 350 @out out;
#X text 40 375 @param rate 4 0.1 20;
